<?xml version="1.0" standalone="no"?><!DOCTYPE svg PUBLIC "-//W3C//DTD SVG 1.1//EN" "http://www.w3.org/Graphics/SVG/1.1/DTD/svg11.dtd"><svg t="1717630470047" class="icon" viewBox="0 0 1024 1024" version="1.1" xmlns="http://www.w3.org/2000/svg" p-id="4310" width="48" height="48" xmlns:xlink="http://www.w3.org/1999/xlink"><path d="M512 960.16002l-9.515724-3.685949C196.871833 838.349743 161.529907 683.948187 161.529907 578.089208L161.529907 173.769672l27.282367 0.935302c212.432227 7.233752 302.889425-88.641853 303.741839-89.577155l19.472494-21.286816 19.444864 21.286816c0.715291 0.77055 86.441744 89.961918 281.052071 89.961918 0 0 0 0 0.027629 0 7.398504 0 14.96176-0.110517 22.63451-0.384763l27.282367-0.935302L862.468047 578.089208c0 105.85898-35.340903 260.259512-340.953346 378.384863L512 960.16002zM214.281341 227.840148 214.281341 578.089208c0 56.930617 0.027629 207.234855 297.718659 325.4697C809.718659 785.324062 809.718659 635.019825 809.718659 578.089208l0-350.249059c-164.852582-0.632403-259.709997-59.296501-297.718659-89.604784C473.963709 168.516018 379.105271 227.152487 214.281341 227.840148z" fill="#ffffff" p-id="4311"></path></svg>